<svg xmlns="http://www.w3.org/2000/svg" x="0px" y="0px" width="64" height="64" viewBox="0 0 128 128">
<path d="M 65 1 C 30.3 1 2 29.3 2 64 C 2 98.7 30.3 127 65 127 C 99.7 127 128 98.7 128 64 C 128 29.3 99.7 1 65 1 z M 65 7 C 96.4 7 122 32.6 122 64 C 122 95.4 96.4 121 65 121 C 33.6 121 8 95.4 8 64 C 8 32.6 33.6 7 65 7 z M 64.949219 27.900391 C 55.724219 27.900391 46.5 31.400391 39.5 38.400391 C 25.5 52.400391 25.5 75.300781 39.5 89.300781 C 46.5 96.300781 55.7 99.800781 65 99.800781 C 69.5 99.800781 73.899609 99.000781 78.099609 97.300781 C 82.599609 95.500781 86.800391 92.899219 90.400391 89.199219 C 96.200391 83.399219 99.499609 76.199219 100.59961 68.699219 C 101.59961 61.399219 100.40039 53.899219 96.900391 47.199219 C 96.300391 46.199219 94.599219 46.099609 93.699219 47.099609 L 67.300781 78 C 66.800781 78.6 65.999609 79 65.099609 79 L 65 79 C 64.2 79 63.400391 78.699609 62.900391 78.099609 L 48 63.199219 C 47 62.199219 46.7 60.500781 47.5 59.300781 C 48.6 57.700781 50.799609 57.500781 52.099609 58.800781 L 64.800781 71.5 L 90.699219 41.300781 C 91.399219 40.500781 91.299609 39.299609 90.599609 38.599609 L 90.400391 38.400391 C 83.400391 31.400391 74.174219 27.900391 64.949219 27.900391 z"></path>
</svg>